inDegrees=yes
name=ik_lifting_orientations
DataType=double
version=3
OpenSimVersion=4.5-2024-01-10-34fd6af
endheader
time	pelvis_tilt	pelvis_list	pelvis_rotation	pelvis_tx	pelvis_ty	pelvis_tz	hip_flexion_r	hip_adduction_r	hip_rotation_r	knee_angle_r	knee_angle_r_beta	ankle_angle_r	subtalar_angle_r	mtp_angle_r	hip_flexion_l	hip_adduction_l	hip_rotation_l	knee_angle_l	knee_angle_l_beta	ankle_angle_l	subtalar_angle_l	mtp_angle_l	lumbar_extension	lumbar_bending	lumbar_rotation	arm_flex_r	arm_add_r	arm_rot_r	elbow_flex_r	pro_sup_r	wrist_flex_r	wrist_dev_r	arm_flex_l	arm_add_l	arm_rot_l	elbow_flex_l	pro_sup_l	wrist_flex_l	wrist_dev_l
0.02	-0.0004770020783362427	-0.0007524809088048623	-90.1090939211195	0	0.9399999998679526	0	45.23645797632322	-11.7850403744642	0	60.33585575928196	1.053059340007853	-5.899959054226288	0	0	45.23645797632322	-11.7850403744642	0	60.33585575928196	1.053059340007853	-5.899959054226288	0	0	-0.00140416183246697	-0.0008996793498899702	0.0003538835876940169	-0.2189888440508062	-0.05164884212053717	-0.006185706426847544	0.4617914209845228	2.156696264641994	0	0	0	-10.01794766011211	0	87.8739213127227	2.156696264641994	0	0
0.03	0.02476317446830557	0.03041555703873726	-90.02549227124405	0	0.9399999998679526	0	45.2364202182962	-11.78404715769676	0	60.33581351801888	1.053058602758733	-5.899307272295343	0	0	45.2364202182962	-11.78404715769676	0	60.33581351801888	1.053058602758733	-5.899307272295343	0	0	0.06081399352576787	-0.05123546490305683	-0.04874138197250429	-0.2231917666446057	0.009639444253511849	0.04227051637864243	0.4841392324440092	2.156456168287265	0	0	0	-10.01835695350093	0	87.8741579777719	2.156456168287265	0	0
0.04	0.06358076830333588	0.04654995463810959	-89.93007522726207	0	0.9399999998679526	0	45.22636599751119	-11.55017662002946	0	60.32452226184096	1.052861533161742	-5.753235034795354	0	0	45.22636599751119	-11.55017662002946	0	60.32452226184096	1.052861533161742	-5.753235034795354	0	0	0.09636301975370008	-0.1139319890462247	-0.1131215910721803	-0.191614559344262	0.02982784396974104	0.06459288679016585	0.4483295312824392	2.091625376188213	0	0	0	-10.1297238622623	0	87.93806234410819	2.091625376188213	0	0
0.05	0.04327877167821646	0.04925646735597929	-89.87841480338942	0	0.9399999998679526	0	45.22633761861314	-11.54950059869162	0	60.32449018849404	1.052860973376236	-5.752807466276972	0	0	45.22633761861314	-11.54950059869162	0	60.32449018849404	1.052860973376236	-5.752807466276972	0	0	0.1459451625890663	-0.1310836153968495	-0.1279984263467842	-0.2027289114940686	0.1457110607394743	0.1123514623995331	0.4481862989182917	2.091442503392371	0	0	0	-10.1300381636828	0	87.93824260363655	2.091442503392371	0	0
0.06	0.05883335843479605	0.05859453328466285	-89.81461324795208	0	0.9399999998679526	0	45.21637913065049	-11.33931363100132	0	60.3132026872125	1.05266396931455	-5.626243502632716	0	0	45.21637913065049	-11.33931363100132	0	60.3132026872125	1.05266396931455	-5.626243502632716	0	0	0.1796733833939213	-0.1824355288842198	-0.1688483422829992	-0.1930241337002093	0.2445306333925902	0.1040494848442273	0.4787817329846564	2.026396751798271	0	0	0	-10.24265329566504	0	88.00235893309571	2.026396751798271	0	0
0.07000000000000001	0.05749907066128578	0.06587747435989595	-89.74690594934792	0	0.9399999998679526	0	45.21635105921764	-11.33870951126737	0	60.3131706509094	1.052663410175581	-5.625875728147319	0	0	45.21635105921764	-11.33870951126737	0	60.3131706509094	1.052663410175581	-5.625875728147319	0	0	0.2069491236702173	-0.1936572625238419	-0.2116648512807067	-0.2039064671475401	0.3588042041140662	0.1147198125610276	0.4997497982164673	2.026213409460635	0	0	0	-10.24297099907915	0	88.0025396556797	2.026213409460635	0	0
0.08	0.07023458298254845	0.08607390593560453	-89.68721806297732	0	0.9399999998679526	0	45.2071449957442	-11.1630328738521	0	60.30263595499867	1.052479545046242	-5.524042446681053	0	0	45.2071449957442	-11.1630328738521	0	60.30263595499867	1.052479545046242	-5.524042446681053	0	0	0.231840659977703	-0.2380405905400826	-0.2754511188138353	-0.2009425821966218	0.4512206140569854	0.195656169185646	0.5025182173977489	1.965273794946341	0	0	0	-10.34933780475074	0	88.06260858799926	1.965273794946341	0	0
0.09	0.03929497831259835	0.04184159876905782	-89.64331913026687	0	0.9399999998679526	0	45.19821680467851	-11.00849067180293	0	60.29232413554841	1.052299569844964	-5.43770423855247	0	0	45.19821680467851	-11.00849067180293	0	60.29232413554841	1.052299569844964	-5.43770423855247	0	0	0.2268455987856286	-0.2281429601431723	-0.279654372139138	-0.2339335059408846	0.5246814636432307	0.2039542476496826	0.4925181848332519	1.905403518323685	0	0	0	-10.45466479996081	0	88.12162352146494	1.905403518323685	0	0
0.1	0.04689893906507031	0.05025537942319573	-89.56753746927896	0	0.9399999998679526	0	45.19819025724123	-11.00801968089201	0	60.29229334877053	1.052299032514324	-5.437437827753916	0	0	45.19819025724123	-11.00801968089201	0	60.29229334877053	1.052299032514324	-5.437437827753916	0	0	0.2543260093761888	-0.248396758802388	-0.2731404471028126	-0.2651203021216656	0.596500271667863	0.2509317709080922	0.5074842273649445	1.905225733554053	0	0	0	-10.45497753039015	0	88.12179876626064	1.905225733554053	0	0
0.11	0.08542877702690896	0.09121330192494868	-89.59398075418848	0	0.9399999998679526	0	45.19816107307427	-11.00750097969111	0	60.29225956565531	1.052298442887731	-5.43714436396968	0	0	45.19816107307427	-11.00750097969111	0	60.29225956565531	1.052298442887731	-5.43714436396968	0	0	0.3105434455742403	-0.3033590160224069	-0.1826068835020254	-0.2907826233901157	0.6722019923118797	0.3165019916792058	0.5140643934389361	1.905030420018669	0	0	0	-10.45532089595652	0	88.12199128938487	1.905030420018669	0	0
0.12	0.08533136924907797	0.1075871663025025	-89.60734262907314	0	0.9399999998679526	0	45.19813152840209	-11.00697539027092	0	60.29222539981653	1.052297846581353	-5.436846977200918	0	0	45.19813152840209	-11.00697539027092	0	60.29222539981653	1.052297846581353	-5.436846977200918	0	0	0.3337278121025409	-0.3154157673555976	-0.1115198211135988	-0.2237437489739046	0.7365600775608288	0.370114335600253	0.4980021538643953	1.904832764460144	0	0	0	-10.45566826936823	0	88.12218612106814	1.904832764460144	0	0
0.13	0.09784117033954287	0.1002463639045643	-89.60387424359102	0	0.9399999998679526	0	45.19810713955322	-11.00654292048134	0	60.29219713158494	1.052297353207638	-5.436602454288133	0	0	45.19810713955322	-11.00654292048134	0	60.29219713158494	1.052297353207638	-5.436602454288133	0	0	0.3404615325912767	-0.3187062982017344	-0.09777495511357313	-0.1666114735469062	0.7382026319018338	0.4823376528442586	0.4306768878332155	1.904669452030747	0	0	0	-10.45595550465807	0	88.12234710028626	1.904669452030747	0	0
0.14	0.08820291028381062	0.09170308025538991	-89.72737649902153	0	0.9399999998679526	0	45.19807893405346	-11.00604437877902	0	60.29216437570899	1.052296781509753	-5.436320801684543	0	0	45.19807893405346	-11.00604437877902	0	60.29216437570899	1.052296781509753	-5.436320801684543	0	0	0.3100267513361708	-0.2839785629565045	0.03088580324399476	-0.07367607854740282	0.7256177125922325	0.6199239358259836	0.3711817179109019	1.904480430051548	0	0	0	-10.4562881728987	0	88.12253342175593	1.904480430051548	0	0
0.15	0.07554570260593087	0.07168596285111505	-89.76066611082932	0	0.9399999998679526	0	45.19805467038602	-11.00561275957074	0	60.29213634715192	1.052296292319148	-5.436076672941712	0	0	45.19805467038602	-11.00561275957074	0	60.29213634715192	1.052296292319148	-5.436076672941712	0	0	0.3248176729738816	-0.3012604072022003	0.1046590580878879	-0.04444620985678603	0.7267946615150002	0.6618187706558595	0.3277106208748282	1.904318153418402	0	0	0	-10.45657327978863	0	88.1226933799646	1.904318153418402	0	0
0.16	0.06874662084422692	0.08320285592406308	-89.80240980927574	0	0.9399999998679526	0	45.19801659560243	-11.00493368012626	0	60.29209246871082	1.05229552649588	-5.435692417095295	0	0	45.19801659560243	-11.00493368012626	0	60.29209246871082	1.05229552649588	-5.435692417095295	0	0	0.3191933137730396	-0.2972032048446585	0.1544736917621155	0.06542504794680717	0.731340410775226	0.7263618954202848	0.2617835422618896	1.904063731216787	0	0	0	-10.45701994102108	0	88.12294416725744	1.904063731216787	0	0
0.17	0.005447530471334434	0.01498868202180699	-89.96893261135142	0	0.9399999998679526	0	45.19796634444999	-11.00404079081956	0	60.29203439621741	1.052294512939665	-5.435187582667344	0	0	45.19796634444999	-11.00404079081956	0	60.29203439621741	1.052294512939665	-5.435187582667344	0	0	0.2509972620243208	-0.2382316289262025	0.3737175277939143	0.1044022063653572	0.7221758677051194	0.7442179593920194	0.2273649231658444	1.903727571256658	0	0	0	-10.45761065346274	0	88.12327552455073	1.903727571256658	0	0
0.18	-0.007012906018014796	0.005506031469564073	-90.05472461277199	0	0.9399999998679526	0	45.19793055451305	-11.00340405482791	0	60.2919930957596	1.052293792110694	-5.434827539291513	0	0	45.19793055451305	-11.00340405482791	0	60.2919930957596	1.052293792110694	-5.434827539291513	0	0	0.2262929076641361	-0.2090760506046864	0.4124858940720554	0.158663720167555	0.677538030606239	0.7969626359790832	0.1827339816155108	1.903488272535525	0	0	0	-10.4580309685059	0	88.12351140444007	1.903488272535525	0	0
0.19	-0.007043474845767977	0.002413283737962639	-90.055050804928	0	0.9399999998679526	0	45.19788470913621	-11.00258733684105	0	60.2919402644002	1.052292870029524	-5.434365653047823	0	0	45.19788470913621	-11.00258733684105	0	60.2919402644002	1.052292870029524	-5.434365653047823	0	0	0.1948785131815529	-0.1833247797173972	0.3741561098898508	0.2080569061092061	0.6536554108421047	0.8031830739066398	0.1723430310926514	1.903181890697688	0	0	0	-10.45856888283824	0	88.12381340902954	1.903181890697688	0	0
0.2	-0.04230524852059026	-0.03165112907174634	-90.03113154963916	0	0.9399999998679526	0	45.19784874706242	-11.00194725650632	0	60.29189881181994	1.052292146545515	-5.434003777511955	0	0	45.19784874706242	-11.00194725650632	0	60.29189881181994	1.052292146545515	-5.434003777511955	0	0	0.1671296779349692	-0.1551855684657312	0.3494317004377251	0.2186875637954947	0.6445418513097466	0.7680449110146038	0.163034276348974	1.902941522502379	0	0	0	-10.45899094119533	0	88.12405034310946	1.902941522502379	0	0
